PathFileType	4	(X/Y/Z)	C:\Users\Biomechanik\SynologyDrive\AlexP\Athlete_03\Athlete_3_25_03_31\Squat_bar_04\marker_experimental.trc
DataRate	CameraRate	NumFrames	NumMarkers	Units	OrigDataRate	OrigDataStartFrame	OrigNumFrames
200.000000	200.000000	4	55	mm	200.000000	403	461
Frame#	Time	BL			BR			GLAB			RFHD			LFHD			C7			T6			SPINMOL			SPINM2			SPINM3			T12			BELTOL			BELT2			BELT3			SACROL			SACR2			SACR3			LTHOL			LTH2			LTH3			LSHAOL			LSHA2			LSHA3			LHEE			LTOE			LM5			RTHOL			RTH2			RTH3			RSHAOL			RSHA2			RSHA3			RHEE			RTOE			RM5			STRN			XIPH			LACR			LUAOL			LUA2			LUA3			LLAOL			LLA2			LLA3			LWRR			LWRU			RACR			RUAOL			RUA2			RUA3			RLAOL			RLA2			RLA3			RWRR			RWRU			
		X1	Y1	Z1	X2	Y2	Z2	X3	Y3	Z3	X4	Y4	Z4	X5	Y5	Z5	X6	Y6	Z6	X7	Y7	Z7	X8	Y8	Z8	X9	Y9	Z9	X10	Y10	Z10	X11	Y11	Z11	X12	Y12	Z12	X13	Y13	Z13	X14	Y14	Z14	X15	Y15	Z15	X16	Y16	Z16	X17	Y17	Z17	X18	Y18	Z18	X19	Y19	Z19	X20	Y20	Z20	X21	Y21	Z21	X22	Y22	Z22	X23	Y23	Z23	X24	Y24	Z24	X25	Y25	Z25	X26	Y26	Z26	X27	Y27	Z27	X28	Y28	Z28	X29	Y29	Z29	X30	Y30	Z30	X31	Y31	Z31	X32	Y32	Z32	X33	Y33	Z33	X34	Y34	Z34	X35	Y35	Z35	X36	Y36	Z36	X37	Y37	Z37	X38	Y38	Z38	X39	Y39	Z39	X40	Y40	Z40	X41	Y41	Z41	X42	Y42	Z42	X43	Y43	Z43	X44	Y44	Z44	X45	Y45	Z45	X46	Y46	Z46	X47	Y47	Z47	X48	Y48	Z48	X49	Y49	Z49	X50	Y50	Z50	X51	Y51	Z51	X52	Y52	Z52	X53	Y53	Z53	X54	Y54	Z54	X55	Y55	Z55	

404	2.015	226.3524627685547	1323.056884765625	-2237.63330078125	181.1609344482422	1363.675903320312	-217.4803619384765	478.68603515625	1537.838745117188	-1183.535888671875	424.2665405273438	1561.833251953125	-1122.683715820312	437.5059814453125	1559.116577148438	-1258.317260742188	244.9024353027344	1407.326171875	-1196.7900390625	141.8858489990234	1263.855224609375	-1208.735717773438	125.8755264282227	1234.177612304688	-1229.27685546875	115.3093566894531	1227.77978515625	-1180.476928710938	102.296012878418	1174	-1216.581298828125	85.29350280761719	1113.7314453125	-1217.232421875	51.16367721557617	1094.937622070312	-1234.416137695312	47.82942962646484	1091.8369140625	-1184.114135742188	23.21509170532227	1038.234497070312	-1214.025390625	-5.943356037139893	949.3115234375001	-1240.245971679688	-8.489654541015625	946.2431030273439	-1188.731201171875	-22.06040573120117	888.4536743164064	-1218.123779296875	104.5952072143555	664.6577758789064	-1438.313354492188	83.74987030029297	592.1646118164064	-1414.674438476562	123.1799545288086	605.8220214843751	-1442.323364257812	140.88134765625	332.4207153320314	-1521.011352539062	101.6047897338867	265.1263122558595	-1504.375122070312	147.0253448486328	270.5357055664064	-1526.161743164062	111.2806549072266	68.92224121093759	-1465.542846679688	314.8982543945312	50.97123336792001	-1540.8408203125	237.7417907714844	27.02281188964854	-1619.539672851562	69.30850982666016	669.7920532226564	-992.0491333007812	125.0021438598633	640.5125122070314	-942.6043090820312	95.74928283691406	616.2090454101564	-974.3809814453125	99.46466064453125	347.8964843750001	-902.604248046875	128.5560607910156	280.2489624023438	-875.3391723632812	91.56172943115234	286.1713562011719	-907.7236328125	88.70171356201172	63.73641967773443	-965.5475463867188	279.44677734375	48.23154449462896	-869.3369750976562	190.5484008789062	37.92140197753911	-798.6533813476562	381.4762573242188	1265.14990234375	-1198.122680664062	362.1900939941406	1119.877075195312	-1193.06298828125	296.8608093261719	1356.95166015625	-1369.175048828125	186.9334716796875	1241.998168945312	-1462.916137695312	138.212158203125	1198.45947265625	-1453.265625	168.9998931884766	1185.81103515625	-1492.075439453125	146.4657897949219	1118.217651367188	-1562.739624023438	218.5149078369141	1115.300537109375	-1595.671142578125	189.1392059326172	1155.439819335938	-1586.689819335938	246.0588684082031	1236.147827148438	-1622.700561523438	255.4691314697266	1263.964599609375	-1549.327392578125	300.3294372558594	1355.781860351562	-1031.774169921875	187.6770172119141	1243.467163085938	-951.0496215820311	160.9269866943359	1189.768188476562	-923.2280273437499	141.218505859375	1201.076416015625	-969.9574584960936	155.196533203125	1121.006713867188	-840.0884399414061	155.9956512451172	1200.216430664062	-829.5271606445311	192.4170379638672	1165.9208984375	-818.5849609374999	224.2229614257812	1252.579833984375	-799.3070068359374	248.4199523925781	1283.733642578125	-869.3433837890624	
405	2.02	226.3461303710938	1324.937622070313	-2237.613037109375	180.7074890136719	1365.459716796875	-217.4622039794921	478.0387878417969	1539.890380859375	-1183.490478515625	423.5838012695312	1563.813110351562	-1122.638916015625	436.83544921875	1561.124389648438	-1258.267211914062	244.4454650878906	1409.177368164062	-1196.781982421875	141.6521606445312	1265.343627929688	-1208.781982421875	125.6332321166992	1235.551513671875	-1229.34619140625	115.0588455200195	1229.11669921875	-1180.554077148438	102.2442779541016	1175.30078125	-1216.62939453125	85.49874114990234	1114.81201171875	-1217.282592773438	51.51602554321289	1095.789184570312	-1234.474975585938	48.1917610168457	1092.703735351562	-1184.166381835938	23.81137847900391	1038.972778320312	-1214.083984375	-4.97268533706665	950.2769775390626	-1240.292114257812	-7.513988971710205	947.1823730468751	-1188.776977539062	-21.03927993774414	889.3956909179689	-1218.200317382812	104.3892211914062	665.5763549804689	-1437.502563476562	83.01995849609375	593.3792114257814	-1413.395874023438	122.4678115844727	606.5816650390626	-1441.22705078125	139.5636138916016	332.3576660156251	-1519.699584960938	100.6622619628906	264.8016662597657	-1503.220947265625	145.9982757568359	270.5288391113282	-1525.10107421875	111.2925872802734	68.91223144531259	-1465.521362304688	314.923583984375	50.94640731811533	-1540.805419921875	237.7508392333984	27.05559539794932	-1619.51416015625	69.10561370849609	670.8782348632814	-993.011962890625	124.5571441650391	640.8987426757814	-943.7244262695312	95.06235504150391	616.9847412109376	-975.5750122070312	98.07776641845703	347.8164672851563	-904.0687866210938	127.4022750854492	280.4108581542969	-876.4324951171875	90.48355102539062	286.0314331054688	-908.95458984375	88.71802520751953	63.73038864135748	-965.5782470703125	279.4560546875	48.21582031250005	-869.3515014648438	190.5584869384766	37.92318725585942	-798.66455078125	381.2652893066406	1267.139770507812	-1198.098388671875	362.1946411132812	1121.871826171875	-1193.036743164062	296.6019897460938	1358.8681640625	-1369.15869140625	186.790283203125	1243.8408203125	-1462.896118164062	138.1082458496094	1200.2646484375	-1453.239013671875	168.8856964111328	1187.65673828125	-1492.0791015625	146.4806365966797	1120.011840820312	-1562.75927734375	218.5421600341797	1117.192993164062	-1595.646850585938	189.1144256591797	1157.290893554688	-1586.681640625	245.9368743896484	1238.064086914062	-1622.672485351562	255.3255310058594	1265.8818359375	-1549.296142578125	300.0169982910156	1357.674560546875	-1031.743408203125	187.4982147216797	1245.26806640625	-951.1228637695311	160.7324066162109	1191.599487304688	-923.2541503906249	141.0956420898438	1202.827758789062	-970.0255737304686	155.0756530761719	1122.825805664062	-840.0478515624999	155.7749481201172	1202.032592773438	-829.5279541015624	192.2537689208984	1167.791015625	-818.5490112304686	223.9607543945312	1254.475830078125	-799.2947387695311	248.1092224121094	1285.643676757812	-869.3414306640624	
406	2.025	226.3404083251953	1326.702392578125	-2237.59228515625	180.2696380615234	1367.133056640625	-217.4426269531249	477.4061889648438	1541.820068359375	-1183.440673828125	422.9151916503906	1565.670776367188	-1122.591186523438	436.1807250976562	1563.01171875	-1258.21533203125	244.0008850097656	1410.91455078125	-1196.7685546875	141.4155578613281	1266.731567382812	-1208.822509765625	125.3789367675781	1236.828125	-1229.409301757812	114.8016738891602	1230.351440429688	-1180.623168945312	102.1792907714844	1176.505859375	-1216.671264648438	85.68662261962891	1115.798583984375	-1217.33056640625	51.86184310913086	1096.537963867188	-1234.537231445312	48.54520416259766	1093.470703125	-1184.225463867188	24.39892196655273	1039.61083984375	-1214.14501953125	-4.024288654327393	951.1404418945314	-1240.338745117188	-6.561263561248779	948.0202026367189	-1188.82177734375	-20.0322151184082	890.2337646484376	-1218.276245117188	104.1644973754883	666.4417724609376	-1436.725830078125	82.29936981201172	594.5402832031251	-1412.155517578125	121.7539978027344	607.2984008789064	-1440.172607421875	138.2615356445312	332.278045654297	-1518.433715820312	99.72666931152344	264.4671936035157	-1502.115356445312	144.9799957275391	270.5075073242189	-1524.081909179688	111.3043823242188	68.90441894531259	-1465.501831054688	314.9455871582031	50.92465209960947	-1540.77734375	237.75732421875	27.07957077026377	-1619.495727539062	68.91899871826172	671.8950805664064	-993.9517211914062	124.1259384155273	641.2380371093751	-944.817138671875	94.39913177490234	617.7044677734376	-976.7371215820312	96.72964477539062	347.7235412597657	-905.5001220703125	126.2753143310547	280.5577087402344	-877.4962158203125	89.43719482421875	285.8821411132813	-910.1566772460938	88.73770904541016	63.72221755981451	-965.611083984375	279.4661560058594	48.19938278198247	-869.3670043945312	190.5679321289062	37.92459487915044	-798.67431640625	381.0603942871094	1269.005859375	-1198.071899414062	362.186767578125	1123.744750976562	-1193.009033203125	296.3569641113281	1360.673828125	-1369.14013671875	186.6564331054688	1245.57421875	-1462.870361328125	138.010009765625	1201.963500976562	-1453.204956054688	168.7795257568359	1189.39404296875	-1492.0703125	146.4933624267578	1121.69677734375	-1562.76806640625	218.5656433105469	1118.972534179688	-1595.614135742188	189.0883026123047	1159.030639648438	-1586.665161132812	245.8163452148438	1239.865600585938	-1622.63916015625	255.1844482421875	1267.686279296875	-1549.261596679688	299.7162780761719	1359.445678710938	-1031.705078125	187.3206939697266	1246.959716796875	-951.2014160156249	160.5255889892578	1193.328002929688	-923.2849121093749	140.9660186767578	1204.47900390625	-970.0994873046874	154.9337310791016	1124.540161132812	-840.0123291015624	155.5453948974609	1203.742309570312	-829.5310058593749	192.0769653320312	1169.552001953125	-818.5174560546874	223.6959075927734	1256.257080078125	-799.2856445312499	247.7975006103516	1287.4365234375	-869.3418579101561	
407	2.03	226.3348846435547	1328.351684570313	-2237.57080078125	179.8471221923828	1368.696655273438	-217.4218139648437	476.7890014648438	1543.630859375	-1183.38671875	422.2612915039062	1567.409423828125	-1122.540161132812	435.5433044433594	1564.781616210938	-1258.16259765625	243.569580078125	1412.538818359375	-1196.749755859375	141.1765594482422	1268.021850585938	-1208.856323242188	125.1134796142578	1238.010620117188	-1229.46484375	114.5394592285156	1231.488159179688	-1180.683227539062	102.1020736694336	1177.6181640625	-1216.706420898438	85.85751342773438	1116.694946289062	-1217.3759765625	52.19979476928711	1097.188232421875	-1234.602416992188	48.88845062255859	1094.140991210938	-1184.291259765625	24.97697257995605	1040.15234375	-1214.208251953125	-3.09922194480896	951.9053955078126	-1240.38525390625	-5.633175849914551	948.7601928710939	-1188.865234375	-19.03970909118652	890.9712524414064	-1218.351196289062	103.9194869995117	667.2579956054689	-1435.984375	81.58655548095703	595.6491088867189	-1410.956909179688	121.038330078125	607.9742431640626	-1439.16064453125	136.9778594970703	332.1831665039064	-1517.216064453125	98.79949188232422	264.1249389648439	-1501.061889648438	143.9728851318359	270.4725341796876	-1523.10546875	111.3155746459961	68.89853668212899	-1465.484497070312	314.9638977050781	50.90590667724619	-1540.756958007812	237.7615051269531	27.09443855285654	-1619.484497070312	68.74806976318359	672.8456420898439	-994.8662109375	123.7094345092773	641.5341796875001	-945.8800659179688	93.760009765625	618.3717651367189	-977.864990234375	95.42304992675781	347.6177673339844	-906.8919677734375	125.1806793212891	280.6894226074219	-878.5280151367188	88.42456817626953	285.7236633300782	-911.3239135742188	88.76035308837891	63.71166992187506	-965.6454467773438	279.4768676757812	48.18250274658208	-869.3827514648438	190.5763702392578	37.92554473876958	-798.68212890625	380.8623352050781	1270.749877929688	-1198.043090820312	362.1666564941406	1125.497192382812	-1192.98046875	296.1258239746094	1362.37060546875	-1369.119018554688	186.5332641601562	1247.199829101562	-1462.8388671875	137.9186553955078	1203.557006835938	-1453.163696289062	168.6828460693359	1191.024291992188	-1492.049438476562	146.505859375	1123.273193359375	-1562.765625	218.5880432128906	1120.640625	-1595.573120117188	189.0625457763672	1160.66015625	-1586.640258789062	245.6986999511719	1241.554077148438	-1622.6005859375	255.0466156005859	1269.379638671875	-1549.223510742188	299.4273986816406	1361.096557617188	-1031.659790039062	187.1440887451172	1248.543090820312	-951.2843627929686	160.3074340820312	1194.95458984375	-923.3197021484374	140.8296508789062	1206.030883789062	-970.1785888671874	154.7715759277344	1126.150512695312	-839.9818115234374	155.3084411621094	1205.3466796875	-829.5355224609374	191.8870697021484	1171.204956054688	-818.4901123046874	223.4292144775391	1257.924682617188	-799.2794799804686	247.4851379394531	1289.11328125	-869.3443603515624	
